<svg xmlns="http://www.w3.org/2000/svg" xml:space="preserve" width="0.517138in" height="0.660646in" version="1.1" style="shape-rendering:geometricPrecision; text-rendering:geometricPrecision; image-rendering:optimizeQuality; fill-rule:evenodd; clip-rule:evenodd"
viewBox="0 0 105.16 134.35"
 xmlns:xlink="http://www.w3.org/1999/xlink"
 xmlns:xodm="http://www.corel.com/coreldraw/odm/2003">
 <defs>
  <style type="text/css">
   <![CDATA[
    .fil0 {fill:#6A7D62}
    .fil1 {fill:#806D2B}
   ]]>
  </style>
 </defs>
 <g>
  <metadata/>
  <g>
   <path class="fil0" d="M48.15 85.27c-0.04,-1.75 0.14,-4.01 0.26,-5.9 0.13,-2.15 -0.18,-1.56 -1.46,-3.17l-5.21 -5.95c-0.51,-0.56 -1.2,-0.93 -1.39,-1.78 0.46,-0.54 3.01,-2.23 3.71,-2.63 0.97,0.48 1.61,1.03 2.38,1.67 0.73,0.61 1.45,1.34 2.4,1.73l0.59 -12.1 7.13 0c0.13,1.37 -0.13,3.48 0.44,4.36 1.65,-0.9 2.72,-2.36 3.59,-2.13 0.64,0.18 1.38,0.76 1.86,1.15 0.35,0.29 0.45,0.35 0.82,0.61 0.43,0.31 0.52,0.34 0.77,0.77l-5.89 6.84c-1.04,1.13 -1.02,1.14 -0.88,3.21 0.36,5.4 0.4,10.91 0.82,16.39 0.68,-0.21 4.94,-3.5 6.46,-4.51 0.62,-0.41 0.25,-0.31 1.26,-0.35 0.05,-0.75 0.14,-0.62 0.58,-1.01 0.56,-0.49 2.12,-1.91 2.79,-1.83 0.43,0.05 3.49,2.19 3.72,2.55 -0.15,0.23 -0.25,0.33 -0.44,0.56l-6.17 6.61c-0.41,0.42 -0.74,0.7 -1.17,1.13 -0.46,0.46 -0.57,0.81 -1.02,1.27l-0.26 0.12 -0.13 0.22c-0.27,-0 -0.21,-0.07 -0.18,0.18l-0.15 0.17 -0.23 0.15 -0.14 0.21c-0.28,-0.02 -0.23,-0.09 -0.18,0.18l-0.14 0.22c0.25,0 0.18,0.05 0.14,-0.22 0.27,0.02 0.21,0.08 0.18,-0.18 0.26,0.02 0.19,0.07 0.14,-0.21l0.23 -0.15c0.24,0.02 0.18,0.07 0.15,-0.17l0.18 -0.18 0.13 -0.22 0.26 -0.12c4.97,0.21 9.4,-0.67 13.44,-2.35 2.1,-0.87 1.14,0.15 5.82,1.19 7.02,1.57 12.42,-1.26 16.14,-6.73 1.08,-1.58 1.93,-3.46 2.22,-5.77 0.44,-3.52 -0.44,-4.1 -0.93,-6.74 2.45,-2.33 3.38,-3.51 4.06,-7.49 1.09,-6.36 -0.61,-13.4 -4.68,-17.93 -1.18,-1.31 -3.4,-2.74 -5.14,-3.54 -0.62,-0.28 -1.74,-0.58 -2.14,-0.84 -0.87,-1.28 2.45,-1.94 4.6,-7.78 3.5,-9.49 -2.12,-18.34 -10.66,-21.7 -0.76,-0.3 -1.67,-0.48 -2.35,-0.86 -0.15,-0.18 -1.02,-4.6 -4.56,-7.83 -6.04,-5.5 -16.8,-5.82 -23.26,-1.04 -1.41,1.04 -2.37,1.64 -3.29,3.03 -3.84,-0.57 -6.01,-2.08 -11.76,-0.68 -6.65,1.61 -11.46,7.58 -13.22,13.76 -1.86,6.57 0.08,9.54 0.23,11.92 -1.42,0.61 -4.58,0.25 -8.09,0.97 -4.18,0.87 -9.19,3.21 -12.05,6.04 -2.03,2.01 -2.58,2.5 -4.19,5.04 -6.41,10.11 -5.93,25.06 3.47,33.65 1.05,0.96 2.57,2.22 3.8,2.95 0.86,0.51 0.75,0.26 1.05,1.25 3.37,11.21 13.56,13.18 23.68,10.45 8.69,-2.34 10.55,-5.95 11.87,-6.47z"/>
   <path class="fil1" d="M48.15 85.27l-2.36 49.08 14.41 0c0.07,-5.34 -0.77,-15.76 -1,-21.88 -0.13,-3.62 -0.33,-7.25 -0.49,-10.87 -0.14,-3.12 -0.57,-2.64 1.18,-4.34l2.8 -3.05 0.14 -0.22c-0.04,-0.27 -0.09,-0.2 0.18,-0.18l0.14 -0.21 0.23 -0.15 0.15 -0.17c-0.03,-0.25 -0.08,-0.19 0.18,-0.18l0.13 -0.22 0.26 -0.12c0.45,-0.46 0.56,-0.82 1.02,-1.27 0.43,-0.43 0.76,-0.71 1.17,-1.13l6.17 -6.61c0.19,-0.22 0.29,-0.33 0.44,-0.56 -0.23,-0.36 -3.29,-2.5 -3.72,-2.55 -0.67,-0.08 -2.23,1.35 -2.79,1.83 -0.44,0.38 -0.53,0.26 -0.58,1.01 -1.01,0.03 -0.64,-0.07 -1.26,0.35 -1.53,1.01 -5.78,4.29 -6.46,4.51 -0.42,-5.47 -0.46,-10.99 -0.82,-16.39 -0.14,-2.07 -0.16,-2.08 0.88,-3.21l5.89 -6.84c-0.25,-0.42 -0.34,-0.46 -0.77,-0.77 -0.37,-0.27 -0.47,-0.33 -0.82,-0.61 -0.49,-0.4 -1.23,-0.98 -1.86,-1.15 -0.87,-0.24 -1.94,1.22 -3.59,2.13 -0.57,-0.88 -0.31,-3 -0.44,-4.36l-7.13 -0 -0.59 12.1c-0.95,-0.39 -1.67,-1.13 -2.4,-1.73 -0.77,-0.63 -1.41,-1.18 -2.38,-1.67 -0.7,0.4 -3.25,2.09 -3.71,2.63 0.19,0.85 0.88,1.23 1.39,1.78l5.21 5.95c1.28,1.61 1.59,1.02 1.46,3.17 -0.12,1.89 -0.29,4.15 -0.26,5.9z"/>
  </g>
 </g>
</svg>
