
<svg xmlns="http://www.w3.org/2000/svg" xml:space="preserve" width="0.469795in" height="0.666665in" version="1.1" style="shape-rendering:geometricPrecision; text-rendering:geometricPrecision; image-rendering:optimizeQuality; fill-rule:evenodd; clip-rule:evenodd"
viewBox="0 0 376.42 534.16"
 xmlns:xlink="http://www.w3.org/1999/xlink"
 xmlns:xodm="http://www.corel.com/coreldraw/odm/2003">
 <defs>
  <style type="text/css">
   <![CDATA[
    .fil0 {fill:#6A7D62}
    .fil1 {fill:#806D2B}
   ]]>
  </style>
 </defs>
 <g>
  <metadata/>
  <g>
   <path class="fil0" d="M220.37 315.86l-0.14 -5.12c11.62,1.52 48.36,-1.75 55.87,0.71l-0.6 0.87c1.2,0 0.99,0.28 0.6,-0.87 2.5,-0.38 3.96,-0.67 7.18,-0.49 1.94,0.1 5.46,0.06 5.47,0.06 19.96,-0.51 40.31,0.44 60.24,-0.04 22.33,-0.54 33.89,-24.51 23.67,-43.98 -3.05,-5.81 -1.98,-5.41 -3.3,-12.09 -2.97,-15.11 -11.95,-27.9 -26.01,-34.08 -9.99,-4.39 -14.3,-3.65 -25.14,-5.41l-6.18 -14.38c12.39,-0.36 22.07,0.85 31.43,-5.37 19.85,-13.2 20.87,-46.04 -4.37,-58.65 -3.13,-1.56 -11.17,-4.43 -13.24,-5.73 1.17,-15.48 3.27,-23.36 -0.32,-39.53 -4.59,-20.71 -17.19,-32.86 -35.55,-39.21 -15.53,-5.38 -5.82,0.52 -16.02,-16.89 -13.07,-22.31 -35.77,-41.26 -70.1,-34.13 -12.15,2.53 -21.93,7.31 -29.45,13.95 -4.52,3.99 -6.53,6 -10.72,10.87 -2.36,2.75 -6.65,9.73 -8.09,13.53 -8.24,-1.36 -10.86,-2.92 -20.6,-2.96 -4.67,-0.02 -8.28,-4.03 -14.85,-8.87 -8.14,-5.99 -20.85,-12.06 -33.41,-13.32 -35.58,-3.59 -59.5,24.49 -65.23,51.87 -2.28,10.91 -0.76,3.01 -11.77,12.1 -12.57,10.37 -13.99,36 1.7,48.97 5.54,4.58 12.12,3.31 20.15,3.31 7.78,0 42.76,-0.47 47.45,0.28 2.02,-0.26 5.9,-0.55 8.53,-0.5 5.98,0.11 3.24,5.57 4.4,3.17 0.06,-0.12 0.18,0.43 0.31,0.62l-0.35 -3.62 8.91 0.15c0.01,7.68 0.82,12.3 2.87,19.09 1.21,4.01 -0.55,4.27 -2.76,7.13 -1.36,1.75 -2.69,4.42 -4.29,6.05 2.87,11.97 2.81,24.14 9.9,30.15l2.64 0.64c2.75,0.61 0.29,0.02 2.52,1.12l15.81 6.51c2.9,-2.08 11.68,-0.79 15.92,-0.79 5.59,0.01 11.19,0 16.78,0 9.04,0 24.56,-0.91 32.83,0.32 0.38,-9.29 -0.13,-37.33 1.64,-44.06l21.21 0.16c0.31,8.13 0.1,16.38 0.6,24.48 0.21,3.47 1.15,15.44 -0.9,18.1l-1.34 1.39c-0.31,0.37 -1.03,1.42 -1.17,1.66 -3.2,5.6 -5.29,11.11 -6.41,18.93 -2.08,14.47 0.85,15.85 0.92,23.1 -6.12,3.22 -10.76,2.8 -15.92,8.19 0.08,-0.22 0.18,-0.2 0.18,-0.27 0,-0.02 0.03,-0.18 0.03,-0.21 -0.09,-2.15 0.93,0.37 -0.5,-1.38 -0.45,1.22 -1.73,1.96 -2.74,2.62 -4.29,2.82 -6.41,4.94 -9.8,8.45 -13.17,13.63 -8.75,39.56 10.89,46.74l-0.17 6.6 0.73 -2.76c0.26,-1.47 0.09,-1.62 0.56,-3.34 5.34,1.59 26.19,1.95 29.1,0.87 -0.47,1.15 -0.48,0.45 -0.35,2.45l0.75 2.83zm-119.23 6.05l0.43 2.26 -0.43 -2.26 -3.39 -30.8c-0.36,-3.17 0.14,-8.85 -0.46,-10l8.72 0.05c1.64,4.63 2.11,14.95 2.77,20.11 0.85,6.63 1.96,14.24 3.17,20.85 20.47,-1.59 36.9,3.69 47.22,-5.96 11.24,-10.5 2,-28.92 -12.02,-32.75 2.68,-16.3 2.56,-25.95 -6.73,-35.85 -10.14,-10.82 -27.56,-11.71 -43.48,-4.71 -7.51,3.31 -11.48,-6.87 -28.21,-0.98 -12.48,4.38 -17.06,13.02 -17.07,29.19 -5.67,2.76 -14.91,2.68 -20.52,15.6 -4.5,10.36 -2.13,21.3 3.64,28.11 6.66,7.86 16.07,7.13 28.98,7.13 12.44,0 24.95,0.12 37.38,0.02z"/>
   <path class="fil1" d="M101.14 321.91l0.43 2.26c-0.41,5.79 3.81,29.05 6.67,33.17 2.26,3.25 31.36,17.45 38.54,20.91 9.59,4.63 34.56,18.02 40.5,19.75l-3.85 135.97 43.08 0.19 -4.92 -172.94c12.48,-4.87 27.91,-12.91 39.96,-18.84 17.49,-8.62 21.89,-7.9 24.94,-19.18 0.85,-3.12 2.26,-9.07 2.26,-12.18 -0.01,0 -3.53,0.04 -5.47,-0.06 -3.22,-0.18 -4.68,0.1 -7.18,0.49 0.38,1.15 0.6,0.87 -0.6,0.87 -1.69,3.79 -1.73,3.24 -5.15,5.28 -2.54,1.52 -4.42,2.29 -6.81,3.66 -5.06,2.89 -38.4,19.24 -42.48,20.38l-0.68 -25.77 -0.75 -2.83c-0.13,-2 -0.12,-1.31 0.35,-2.45 -2.91,1.09 -23.76,0.72 -29.1,-0.87 -0.47,1.72 -0.31,1.88 -0.56,3.34l-0.73 2.76 -1.73 62.69c-4.41,-1.08 -16.98,-7.96 -21.87,-10.45 -11.75,-5.98 -32.98,-16.51 -43.54,-22.9 -9.71,-5.88 -6.46,-12.61 -10.49,-23.03 -1.22,-6.61 -2.32,-14.21 -3.17,-20.85 -0.66,-5.17 -1.13,-15.48 -2.77,-20.11l-8.72 -0.05c0.59,1.15 0.09,6.83 0.46,10l3.39 30.8zm-22.09 -190.65c0.78,10.93 6.87,64.38 11.85,73.57 2.94,5.41 91.64,39.03 100.67,42.3l-0.17 4.28c1.43,1.74 0.41,-0.78 0.5,1.38 0,0.03 -0.03,0.19 -0.03,0.21 -0.01,0.07 -0.1,0.05 -0.18,0.27 5.16,-5.38 9.8,-4.97 15.92,-8.19 -0.08,-7.25 -3,-8.63 -0.92,-23.1 1.13,-7.82 3.21,-13.33 6.41,-18.93 0.14,-0.24 0.86,-1.3 1.17,-1.66l1.34 -1.39c2.05,-2.66 1.11,-14.63 0.9,-18.1 -0.5,-8.1 -0.29,-16.35 -0.6,-24.48l-21.21 -0.16c-1.77,6.73 -1.26,34.77 -1.64,44.06l-0.93 26.18c-11.29,-3.18 -60.39,-24.9 -64.59,-25.72l-15.81 -6.51c-2.23,-1.1 0.22,-0.51 -2.52,-1.12l-2.64 -0.64c-7.09,-6 -7.03,-18.18 -9.9,-30.15l-4.37 -28.81c-0.13,-0.19 -0.25,-0.74 -0.31,-0.62 -1.16,2.4 1.58,-3.05 -4.4,-3.17 -2.63,-0.05 -6.51,0.23 -8.53,0.5z"/>
  </g>
 </g>
</svg>
