<svg xmlns="http://www.w3.org/2000/svg" xml:space="preserve" width="0.515433in" height="0.614681in" version="1.1" style="shape-rendering:geometricPrecision; text-rendering:geometricPrecision; image-rendering:optimizeQuality; fill-rule:evenodd; clip-rule:evenodd"
viewBox="0 0 167.44 199.69"
 xmlns:xlink="http://www.w3.org/1999/xlink"
 xmlns:xodm="http://www.corel.com/coreldraw/odm/2003">
 <defs>
  <style type="text/css">
   <![CDATA[
    .fil1 {fill:#806D2B}
    .fil0 {fill:#A7A454}
   ]]>
  </style>
 </defs>
 <g>
  <metadata/>
  <g>
   <path class="fil0" d="M70.82 150.17c-0.16,-5.95 1.52,-4.35 -2.66,-8.81 -1.06,-1.13 -1.6,-2.07 -2.56,-3.08 -0.6,-0.63 -0.86,-0.78 -1.4,-1.43 -0.23,-0.27 -0.4,-0.47 -0.65,-0.76l-0.75 -1.1 6.08 -4.36c2.29,1.03 1.11,1.34 2.67,1.72l1.12 -22.88 -9.96 -11.12c-0.99,-1.18 -2.69,-2.79 -3.22,-3.98 7.7,-5.02 4.86,-4.93 10.35,-1.17 0.79,0.54 2.64,2.14 3.46,2.3l0.97 -19.14 11.52 -0.08 2.22 48.94c0.95,-0.07 2.45,-1.56 3.27,-2.13 1.96,-1.36 9.02,-6.92 10.22,-7.32 1.4,1.11 4.62,3.55 6,4.14 -0.47,0.97 -10.89,12.63 -11.89,13.74 -7.64,8.51 -6.83,6.35 -6.63,12.1 0.07,1.98 -0.63,3.89 0.31,5.62l-0.12 -3.09c12.77,2.23 20.72,2.24 31.76,-2.93 6.07,-2.84 12.12,-6.78 16.34,-11.7 3.29,-3.83 1.89,-2.8 3.64,-5.64 11.24,-1 20,-7.96 23.31,-16.16 4.04,-10.01 3.76,-23.95 1.94,-35.33 -4.18,-26.17 -16.95,-43.76 -37.06,-51.39 -7.86,-2.99 -7.06,-0.12 -9.83,-4.9 -9.48,-16.41 -32.18,-24.85 -51.35,-17.69 -8.92,3.33 -16.4,10.23 -21.07,18.59 -1.75,3.15 -5.12,9.72 -5.8,14.03 -13.76,2.33 -27.01,11.69 -33.09,24.17 -6.38,13.1 -8.78,32.31 -7.76,49.27 0.49,8.2 2.28,17.12 6.04,22.67 3.77,5.56 11.18,8.22 20.38,8.17 2.22,-0.01 4.44,-0.18 6.53,-0.45 7.75,-1.02 3.6,-1.95 9.38,3.01 1,0.86 3.04,2.17 4.38,2.96 3.07,1.81 6.48,3.13 10.41,4.06 7.31,1.73 8.81,0.54 13.47,1.1z"/>
   <path class="fil1" d="M70.82 150.17l-2.36 49.51 23.01 0.01 -2.18 -48.29c-0.94,-1.74 -0.24,-3.65 -0.31,-5.62 -0.2,-5.75 -1.01,-3.59 6.63,-12.1 1,-1.11 11.42,-12.78 11.89,-13.74 -1.38,-0.58 -4.6,-3.03 -6,-4.14 -1.2,0.4 -8.26,5.96 -10.22,7.32 -0.82,0.57 -2.33,2.06 -3.27,2.13l-2.22 -48.94 -11.52 0.08 -0.97 19.14c-0.82,-0.16 -2.67,-1.76 -3.46,-2.3 -5.48,-3.76 -2.65,-3.85 -10.35,1.17 0.53,1.19 2.22,2.79 3.22,3.98l9.96 11.12 -1.12 22.88c-1.55,-0.38 -0.38,-0.69 -2.67,-1.72l-6.08 4.36 0.75 1.1c0.25,0.29 0.42,0.48 0.65,0.76 0.54,0.65 0.8,0.8 1.4,1.43 0.96,1.01 1.51,1.95 2.56,3.08 4.18,4.46 2.5,2.85 2.66,8.81z"/>
  </g>
 </g>
</svg>
