<svg fill="none" height="80" viewBox="0 0 80 80" width="80" xmlns="http://www.w3.org/2000/svg" xmlns:xlink="http://www.w3.org/1999/xlink"><linearGradient id="a"><stop offset="0" stop-color="#afe8ff"/><stop offset=".2327" stop-color="#ace7ff"/><stop offset=".3943" stop-color="#a3e4ff"/><stop offset=".5342" stop-color="#94e0ff"/><stop offset=".6619" stop-color="#7ed9fe"/><stop offset=".7813" stop-color="#62d1fe"/><stop offset=".8928" stop-color="#40c6fe"/><stop offset="1" stop-color="#17bafd"/></linearGradient><radialGradient id="b" cx="0" cy="0" gradientTransform="matrix(-3.02184316 .12311306 -.10046923 -2.46604424 27.8047 68.3217)" gradientUnits="userSpaceOnUse" r="1" xlink:href="#a"/><radialGradient id="c" cx="0" cy="0" gradientTransform="matrix(.31204507 3.55340507 -2.89994983 .25466138 27.3483 71.9048)" gradientUnits="userSpaceOnUse" r="1" xlink:href="#a"/><radialGradient id="d" cx="34.479" cy="27.1245" gradientUnits="userSpaceOnUse" r="36.7641"><stop offset="0" stop-color="#80d9fd"/><stop offset="1" stop-color="#008de5"/></radialGradient><radialGradient id="e" cx="34.479" cy="27.1245" gradientUnits="userSpaceOnUse" r="28.924"><stop offset="0" stop-color="#afe8ff"/><stop offset="1" stop-color="#80d9fd" stop-opacity="0"/></radialGradient><linearGradient id="f"><stop offset=".00132565" stop-color="#000042"/><stop offset="1" stop-color="#27009c"/></linearGradient><linearGradient id="g" gradientUnits="userSpaceOnUse" x1="27.3828" x2="27.7458" xlink:href="#f" y1="27.7593" y2="23.9238"/><linearGradient id="h"><stop offset=".0026513" stop-color="#1404bd"/><stop offset="1" stop-color="#000042"/></linearGradient><radialGradient id="i" cx="0" cy="0" gradientTransform="matrix(1.53533834 5.30328575 -3.43113384 .99333726 30.0518 35.1993)" gradientUnits="userSpaceOnUse" r="1" xlink:href="#h"/><radialGradient id="j" cx="50.4247" cy="36.3396" gradientUnits="userSpaceOnUse" r="3.76209" xlink:href="#h"/><radialGradient id="k" cx="0" cy="0" gradientTransform="matrix(22.48411938 .13082749 -.0381362 6.55411905 40.7293 63.9575)" gradientUnits="userSpaceOnUse" r="1"><stop offset="0" stop-color="#3640ff" stop-opacity=".5"/><stop offset=".3014" stop-color="#3531f0" stop-opacity=".3486"/><stop offset=".8826" stop-color="#3109c9" stop-opacity=".056501"/><stop offset=".995" stop-color="#3000c1" stop-opacity="0"/></radialGradient><radialGradient id="l" cx="40.3399" cy="53.538" gradientUnits="userSpaceOnUse" r="37.2079" xlink:href="#h"/><radialGradient id="m" cx="40.3399" cy="53.538" gradientUnits="userSpaceOnUse" r="14.1869" xlink:href="#h"/><radialGradient id="n" cx="0" cy="0" gradientTransform="matrix(-25.7631 0 0 -25.7631 40.34 53.552)" gradientUnits="userSpaceOnUse" r="1"><stop offset=".00132565" stop-color="#fff"/><stop offset="1" stop-color="#a8bbbd"/></radialGradient><linearGradient id="o" gradientUnits="userSpaceOnUse" x1="8221.84" x2="8221.18" xlink:href="#f" y1="-746.903" y2="-746.84"/><radialGradient id="p" cx="0" cy="0" gradientTransform="matrix(-10.49445289 .37637755 -.41944814 -11.69538078 48.1827 61.2799)" gradientUnits="userSpaceOnUse" r="1" xlink:href="#a"/><linearGradient id="q"><stop offset="0" stop-color="#afe8ff"/><stop offset=".2211" stop-color="#ace7ff"/><stop offset=".3745" stop-color="#a3e2fd"/><stop offset=".5074" stop-color="#94dafb"/><stop offset=".6287" stop-color="#7ecef8"/><stop offset=".7421" stop-color="#62c0f4"/><stop offset=".8496" stop-color="#3faeee"/><stop offset=".9506" stop-color="#1799e8"/><stop offset="1" stop-color="#008de5"/></linearGradient><radialGradient id="r" cx="0" cy="0" gradientTransform="matrix(.74146433 11.43889449 -4.38753238 .284398 64.923 60.4103)" gradientUnits="userSpaceOnUse" r="1" xlink:href="#q"/><radialGradient id="s" cx="0" cy="0" gradientTransform="matrix(.53555849 8.65368354 -4.73720665 .29317587 32.5328 63.7942)" gradientUnits="userSpaceOnUse" r="1" xlink:href="#a"/><radialGradient id="t" cx="0" cy="0" gradientTransform="matrix(1.11457593 26.14685497 -11.80687769 .50329807 15.4742 57.5773)" gradientUnits="userSpaceOnUse" r="1" xlink:href="#q"/><radialGradient id="u" cx="0" cy="0" gradientTransform="matrix(-6.15310795 .35586347 -.29041599 -5.02147894 56.2879 67.6156)" gradientUnits="userSpaceOnUse" r="1"><stop offset=".3542" stop-color="#afe8ff"/><stop offset=".3584" stop-color="#ace7ff"/><stop offset=".4247" stop-color="#85dbfe"/><stop offset=".4951" stop-color="#63d1fe"/><stop offset=".5701" stop-color="#47c9fe"/><stop offset=".6508" stop-color="#32c2fd"/><stop offset=".74" stop-color="#23befd"/><stop offset=".8443" stop-color="#1abbfd"/><stop offset="1" stop-color="#17bafd"/></radialGradient><radialGradient id="v" cx="0" cy="0" gradientTransform="matrix(.75557428 17.72430252 -8.00443025 .34122311 11.6147 62.3529)" gradientUnits="userSpaceOnUse" r="1" xlink:href="#q"/><radialGradient id="w" cx="46.2947" cy="56.8185" gradientUnits="userSpaceOnUse" r="4.54428" xlink:href="#a"/><radialGradient id="x" cx="31.5453" cy="54.8185" gradientUnits="userSpaceOnUse" r="7.70571" xlink:href="#a"/><radialGradient id="y" cx="56.5023" cy="72.0699" gradientUnits="userSpaceOnUse" r="20.3341" xlink:href="#q"/><radialGradient id="z" cx="0" cy="0" gradientTransform="matrix(-3.71915469 .15152227 -.19172234 -4.70587613 44.751 64.8611)" gradientUnits="userSpaceOnUse" r="1" xlink:href="#a"/><radialGradient id="A" cx="0" cy="0" gradientTransform="matrix(.64580858 7.35412836 -6.001713 .52704516 54.7515 61.1393)" gradientUnits="userSpaceOnUse" r="1" xlink:href="#a"/><radialGradient id="B" cx="0" cy="0" gradientTransform="matrix(.64580858 7.35412836 -6.00170304 .52704429 54.7515 61.1393)" gradientUnits="userSpaceOnUse" r="1" xlink:href="#a"/><radialGradient id="C" cx="0" cy="0" gradientTransform="matrix(-1.81211364 -5.05603159 1.7735309 -.63564467 15.4693 58.105)" gradientUnits="userSpaceOnUse" r="1"><stop offset="0" stop-color="#fff"/><stop offset=".0236692" stop-color="#fcfeff" stop-opacity=".9763"/><stop offset=".2964" stop-color="#daf4ff" stop-opacity=".7036"/><stop offset=".5569" stop-color="#c2eeff" stop-opacity=".4431"/><stop offset=".7977" stop-color="#b4e9ff" stop-opacity=".2023"/><stop offset="1" stop-color="#afe8ff" stop-opacity="0"/></radialGradient><linearGradient id="D"><stop offset="0" stop-color="#fff"/><stop offset=".51" stop-color="#d4f3ff" stop-opacity=".49"/><stop offset="1" stop-color="#afe8ff" stop-opacity="0"/></linearGradient><radialGradient id="E" cx="0" cy="0" gradientTransform="matrix(-3.47719908 .17219265 -.0921245 -1.86033037 48.3189 60.2782)" gradientUnits="userSpaceOnUse" r="1" xlink:href="#D"/><radialGradient id="F" cx="0" cy="0" gradientTransform="matrix(-8.78722874 2.86074013 -.69373142 -2.13090894 30.7273 60.1539)" gradientUnits="userSpaceOnUse" r="1" xlink:href="#D"/><clipPath id="G"><path d="m0 0h80v80h-80z"/></clipPath><g clip-path="url(#G)"><path d="m26.0312 66.3355c.9072.4253 1.1624 3.2034 1.7577 3.2034.5811 0 .2409-1.8001 1.2048-1.8852.9639-.085-1.7434-2.2679-1.7434-2.2679z" fill="url(#b)"/><path d="m27.2503 65.3717-1.2191.9496c.2835.1276.4962.4962.6804.9356 1.2615-.0709 1.6868.1984 1.3749.8788-.3543.7654.0142 1.1623-.2976 1.3891.5811 0 .2409-1.8002 1.2048-1.8852.9639-.0851-1.7434-2.2679-1.7434-2.2679z" fill="url(#c)"/><path d="m40.475 69.95c16.8309 0 30.475-13.6441 30.475-30.475s-13.6441-30.475-30.475-30.475-30.475 13.6441-30.475 30.475 13.6441 30.475 30.475 30.475z" fill="url(#d)"/><path d="m40.475 69.95c16.8309 0 30.475-13.6441 30.475-30.475s-13.6441-30.475-30.475-30.475-30.475 13.6441-30.475 30.475 13.6441 30.475 30.475 30.475z" fill="url(#e)" opacity=".5"/><path d="m34.0115 25.9243c.1417-1.46-1.0914-2.4947-3.3452-2.7074-1.9277-.1842-6.2651.6804-9.596 4.9044-.6095.7796.1701 1.304.737.8221 1.9561-1.6442 6.9738-3.5436 10.6592-2.6931 1.4883.326 1.545-.326 1.545-.326z" fill="url(#g)"/><path d="m30.5246 40.779c1.6204 0 2.9341-1.9863 2.9341-4.4365 0-2.4503-1.3137-4.4366-2.9341-4.4366-1.6205 0-2.9341 1.9863-2.9341 4.4366 0 2.4502 1.3136 4.4365 2.9341 4.4365z" fill="url(#i)"/><path d="m30.5246 33.4083c1.2615 0 2.3529 1.0915 2.9341 2.7215-.0426-2.3954-1.3324-4.3232-2.9341-4.3232-1.6018 0-2.8916 1.9278-2.9341 4.3232.5811-1.63 1.6725-2.7215 2.9341-2.7215z" fill="#000"/><path d="m50.4254 40.779c1.6205 0 2.9341-1.9863 2.9341-4.4365 0-2.4503-1.3136-4.4366-2.9341-4.4366-1.6204 0-2.9341 1.9863-2.9341 4.4366 0 2.4502 1.3137 4.4365 2.9341 4.4365z" fill="url(#j)"/><path d="m50.4254 33.5076c-1.2615 0-2.3529 1.0914-2.9341 2.7215.0426-2.3955 1.3324-4.3232 2.9341-4.3232s2.8916 1.9277 2.9341 4.3232c-.5811-1.6159-1.6725-2.7215-2.9341-2.7215z" fill="#000"/><path d="m40.475 69.95c16.8309 0 30.475-13.6441 30.475-30.475s-13.6441-30.475-30.475-30.475-30.475 13.6441-30.475 30.475 13.6441 30.475 30.475 30.475z" fill="url(#k)"/><path d="m40.3333 59.5035c5.0603 0 9.8512 1.063 12.2892 1.063 2.4522 0 4.5925-1.4174 6.1801-6.506 2.1261-6.8463-6.6195-7.5408-18.4693-7.5408s-20.6096.7087-18.4693 7.5408c1.5876 5.0886 3.7279 6.506 6.1801 6.506s7.2289-1.063 12.2892-1.063z" fill="url(#l)"/><path d="m40.3333 46.5197c-11.8498 0-20.6096.7087-18.4693 7.5408 1.5876 5.0886 3.7279 6.506 6.1801 6.506 0 0-5.0745-1.8285-3.3877-5.5138 1.6867-3.6854 15.6769-7.0164 15.6769-7.0164s14.0043 3.3169 15.6911 7.0022c1.6867 3.6854-3.3877 5.5139-3.3877 5.5139.5953 0 1.1623-.0851 1.7151-.2835 1.7293-.6237 3.2601-2.3672 4.4649-6.2226 2.1262-6.8321-6.6194-7.5266-18.4834-7.5266z" fill="url(#m)"/><path d="m40.3333 57.9868c3.09 0 6.0524.3827 8.4337.6804 1.5876.1984 2.9483.3827 3.8555.3827.1275 0 .2693.0141.411.0283 2.7924 0 3.4444-4.5074 2.7074-4.5074 0 0 1.8285-2.5089.3401-4.6776-3.2743-1.8427-11.2261-1.8427-15.7619-1.8427s-12.4877 0-15.762 1.8427c-1.4741 2.1687.3402 4.6776.3402 4.6776-.737 0-.085 4.5074 2.7073 4.5074.1418-.0142.2835-.0283.4111-.0283.9072 0 2.2679-.1701 3.8554-.3827 2.4097-.3119 5.3863-.6804 8.4622-.6804z" fill="url(#n)"/><path d="m24.8972 54.996c10.2481-2.3246 20.8931-2.2963 31.1271.085-.0142-.2693-.0851-.4535-.2126-.5102l-.0709-.0142s-5.117-1.8143-15.2801-1.8143c-10.163 0-15.5493 1.8143-15.5493 1.8143-.1559 0-.241.1842-.2693.4819z" fill="#98aeb2"/><path d="m46.9385 25.825c-.1417-1.4599 1.0914-2.4947 3.3452-2.7073 1.9277-.1842 6.265.6804 9.596 4.9044.6095.7796-.1701 1.304-.737.8221-1.9561-1.6443-6.9739-3.5436-10.6592-2.6932-1.5025.3261-1.545-.326-1.545-.326z" fill="url(#o)"/><path d="m39.8938 59.5176c-.4535.326.808.1701 1.3041 1.8427.7512 2.5089.1417 3.7846.6378 3.7846.6095 0 .482-4.4508 1.46-4.4508s.7796.4111 1.6442.2268c.8788-.1843 1.9561 1.3182 2.112 1.7151.7938 1.9986.7371 8.1078 1.5309 8.1078.3968 0 .0992-3.9689.5244-7.64.0851-.7513 2.6223-2.594 2.9908-.7796.3685 1.8143.652 1.4174.7513-.2127.085-1.389 1.9135-1.8143 1.9135-1.8143s.0709-.326-.978-.3685-2.2538.1134-3.1184-.1418c-.8646-.2551-2.1262-.6803-3.3593-.6803-1.2332 0-1.701.3118-2.594.2693-.9071-.0567-3.4443-.8647-4.8193.1417z" fill="url(#p)"/><path d="m66.9812 54.5282c-1.3465 2.5373-2.2254 5.9391-2.0269 8.207.2268 2.7357.1276 6.1375-.652 6.1375-.5387 0-.6095-2.7215-.8505-4.2381-.2835-1.7009-.4819-4.2665-1.7435-4.2665-1.2473 0 2.027-2.3955 2.6648-3.6287 1.5167-2.9482 2.6081-2.2112 2.6081-2.2112z" fill="url(#r)"/><path d="m27.959 60.5665c0 1.2049.0567 2.0412.6662 2.0412.6237 0 .3118-.9639 1.0347-1.8144.7229-.8646.567 5.9816 1.3324 5.9816s-.4394-4.4791 1.0347-5.8398c2.2113-2.0411.7796.8646 1.3466.8646s.7371-1.7576 2.9625-2.0836c-.5245-.7938-2.1829-.5812-3.8271.0283-1.8285.6662-4.55.1559-4.55.8221z" fill="url(#s)"/><path d="m11.3892 51.5941c-.1418 3.5153 1.4316 6.0383 1.2615 2.1829-.0567-1.3041 1.5592 1.6584 2.0127 10.0638.2694 5.0461 2.0979 9.6528 1.786 5.202-.3118-4.4791.7371-4.3232.808-5.6556.1417-3.09.737-4.9185 2.5088-.2267.156.4252.5103.0283.7513-.6379.2976-.5953-1.4033-2.1829-1.4458-3.1042s-2.4947-1.9135-2.9483-3.5294-1.2615-1.9844-1.5308-3.1184c-.2552-1.1339-2.5798-2.9766-2.5089-4.0681.0709-1.0772-1.4174-3.2742-1.4174-3.2742s.8079 3.9546.7229 6.1658z" fill="url(#t)"/><path d="m54.7628 65.8536-.3827.2551s-1.5309.7938-1.6443 1.1198c0 .0425 0 .0992.0567.1276.6946.2409.7655 1.871 1.0489 1.871.5103 0 .2694-1.7151 1.1623-1.7151.5812 0 1.049 2.2537 1.375 2.2537.7796 0 .3968-4.4224 1.871-5.5422l-.9922.2694c-.5812.1559-1.1198.4535-1.5592.8788-.2126.2126-.3969.3685-.6379.3968-.0567 0-.1701.0426-.2976.0851z" fill="url(#u)"/><path d="m13.4302 53.536c-.3402-2.6931-1.1906-.2409-1.1339 1.6159 0 .1843-.1843.2126-.3544.0992.3827.8221.8079.6237.7229-1.4883-.0567-1.304 1.5592 1.6584 2.0128 10.0639.1842 3.5152 1.1197 6.7895 1.5733 6.988-.3402-1.0206-1.1623-4.8335-1.1623-8.6464 0-3.8271-1.2615-5.5422-1.6584-8.6323z" fill="url(#v)"/><path d="m50.1561 61.5871c-1.219.5244-1.4742 1.7009-1.4742 2.7356 0 1.0064.0567 5.1879-.4252 5.9675.0851.2835.1985.4536.326.4536.3969 0 .0992-3.9689.5245-7.64.085-.7513 2.6222-2.594 2.9908-.7796.1984.9355.3685 1.2757.4961 1.1623-.1418-.1701-.2552-.482-.2977-1.2049-.0567-.7937-.9213-1.219-2.1403-.6945z" fill="url(#w)"/><path d="m33.0334 60.2122c-.9072.0567-2.0979 1.1056-1.9986 2.5655.1134 1.46.1275 3.1751.0283 3.5862-.0283.1275-.1984.1559-.241.2551.0567.0709.0993.1276.1701.1276.7655 0-.4394-4.4791 1.0348-5.8399.5102-.4536.8221-.652 1.0064-.6945z" fill="url(#x)"/><path d="m64.6283 68.4333c-.5387-.1275-.9214-4.1247-1.3324-6.9596-.1843-1.2473-.8505-2.0269-1.3324-1.6442-.5387.5811-.2693.5386-.2693.5386 1.2473 0 1.4599 2.5656 1.7434 4.2665.2551 1.5167.326 4.2381.8505 4.2381.1559 0 .2835-.1275.3827-.3685-.0142-.0283 0-.0709-.0425-.0709z" fill="url(#y)"/><path d="m45.2802 60.6799c-.6096 0-.6662.1276-.808.0567-.1417-.0708-.7229-.3969-1.3182-.2551-.5953.1417-.893 1.0772-.8363 1.7151.0567.6378-.3685 1.2473-.2693 1.7434.0992.4962-.0425 1.2049-.3686.9639-.0141-.0142-.0141 0-.0283 0 .0283.1418.0709.2268.1984.2268.6095 0 .482-4.4508 1.46-4.4508s.7654.4111 1.6442.2268c.8647-.1842 1.9561 1.3182 2.112 1.7151-.2126-.9071-1.1906-1.9419-1.7859-1.9419z" fill="url(#z)"/><path d="m56.7756 67.1009c-.0567 1.1056-.2693 3.0475-.4394 2.3813-.1701-.6661-.9214-2.4805-1.5025-2.2537-.5812.2268-.6095.8363-.7229 1.3891-.0709.3402-.2126.6379-.3118.5812.0141.0141.0283.0283.0425.0283.5103 0 .2693-1.7151 1.1623-1.7151.5811 0 1.0489 2.2537 1.3749 2.2537.7796 0 .3969-4.4224 1.871-5.5422-.6237.3827-1.4174 1.7718-1.4741 2.8774z" fill="url(#A)"/><path d="m53.7848 69.1846c-.0567-.0425-.0993-.2126-.0993-.567 0-.7796-.3827-1.1906-.9071-1.4458-.0142.0284-.0425.0567-.0567.0709 0 .0425 0 .0992.0567.1276.652.2126.7654 1.6158 1.0064 1.8143z" fill="url(#B)"/><path d="m17.4274 60.1838c-.3685.5954-1.2899.4678-2.0411-.2835-.7654-.7512-1.7576-5.9816-1.3891-6.5769s1.9702 3.6854 2.7215 4.4366c.7654.7371 1.0772 1.8285.7087 2.4238z" fill="url(#C)" opacity=".5"/><path d="m50.468 60.283c.0567.6521-.8363 1.1907-1.9986 1.2191-1.1623.0283-2.1545-.482-2.2112-1.1198-.0567-.6379.8363-1.1907 1.9986-1.219 1.1623-.0426 2.1545.4677 2.2112 1.1197z" fill="url(#E)" opacity=".5"/><path d="m27.959 60.5665c0 1.2049.0567 2.0412.6662 2.0412.6237 0 .3118-.9639 1.0347-1.8144.7229-.8646.567 5.9816 1.3324 5.9816s-.4394-4.4791 1.0347-5.8398c2.2113-2.0411.7796.8646 1.3466.8646s.7371-1.7576 2.9625-2.0836c-.5245-.7938-2.1829-.5812-3.8271.0283-1.8285.6662-4.55.1559-4.55.8221z" fill="url(#F)" opacity=".5"/></g></svg>