<svg fill="none" height="80" viewBox="0 0 80 80" width="80" xmlns="http://www.w3.org/2000/svg" xmlns:xlink="http://www.w3.org/1999/xlink"><radialGradient id="a" cx="34.0037" cy="27.649" gradientUnits="userSpaceOnUse" r="36.7656"><stop offset="0" stop-color="#ffe030"/><stop offset="1" stop-color="#ffb92e"/></radialGradient><radialGradient id="b" cx="34.0037" cy="27.649" gradientUnits="userSpaceOnUse" r="28.9251"><stop offset="0" stop-color="#ffea5f"/><stop offset="1" stop-color="#ffbc47" stop-opacity="0"/></radialGradient><linearGradient id="c"><stop offset=".00132565" stop-color="#3c2200"/><stop offset="1" stop-color="#7a4400"/></linearGradient><linearGradient id="d" gradientUnits="userSpaceOnUse" x1="26.9079" x2="27.271" xlink:href="#c" y1="28.2836" y2="24.448"/><linearGradient id="e"><stop offset=".00132565" stop-color="#7a4400"/><stop offset="1" stop-color="#643800"/></linearGradient><radialGradient id="f" cx="0" cy="0" gradientTransform="matrix(1.1974619 4.13621055 -2.6760698 .77474094 29.1594 36.974)" gradientUnits="userSpaceOnUse" r="1" xlink:href="#e"/><linearGradient id="g"><stop offset=".00132565" stop-color="#3c2200"/><stop offset="1" stop-color="#512d00"/></linearGradient><linearGradient id="h" gradientUnits="userSpaceOnUse" x1="30.0497" x2="30.0497" xlink:href="#g" y1="32.4017" y2="36.5378"/><radialGradient id="i" cx="0" cy="0" gradientTransform="matrix(1.19746469 4.13622016 -2.6760698 .77474094 49.0609 36.9747)" gradientUnits="userSpaceOnUse" r="1" xlink:href="#e"/><linearGradient id="j" gradientUnits="userSpaceOnUse" x1="49.9502" x2="49.9502" xlink:href="#g" y1="32.5109" y2="36.6469"/><radialGradient id="k" cx="39.8648" cy="54.0635" gradientUnits="userSpaceOnUse" r="14.1874" xlink:href="#e"/><linearGradient id="l" gradientUnits="userSpaceOnUse" x1="21.071" x2="58.6592" xlink:href="#g" y1="54.0636" y2="54.0636"/><radialGradient id="m" cx="0" cy="0" gradientTransform="matrix(-25.7641 0 0 -25.7641 39.8646 54.0776)" gradientUnits="userSpaceOnUse" r="1"><stop offset=".00132565" stop-color="#fff"/><stop offset="1" stop-color="#a9bcbe"/></radialGradient><linearGradient id="n" gradientUnits="userSpaceOnUse" x1="53.0964" x2="52.7334" xlink:href="#c" y1="28.1758" y2="24.3401"/><path d="m40 70.4762c16.8315 0 30.4762-13.6447 30.4762-30.4762s-13.6447-30.4762-30.4762-30.4762-30.4762 13.6447-30.4762 30.4762 13.6447 30.4762 30.4762 30.4762z" fill="url(#a)"/><path d="m40 70.4762c16.8315 0 30.4762-13.6447 30.4762-30.4762s-13.6447-30.4762-30.4762-30.4762-30.4762 13.6447-30.4762 30.4762 13.6447 30.4762 30.4762 30.4762z" fill="url(#b)" opacity=".5"/><path d="m33.543 26.457c.1333-1.4667-1.0857-2.4953-3.3524-2.7048-1.9238-.1905-6.2667.6857-9.6 4.8952-.6095.781.1714 1.3143.7429.8191 1.9619-1.6571 6.9714-3.5429 10.6666-2.7048 1.4857.3429 1.5429-.3047 1.5429-.3047z" fill="url(#d)"/><path d="m30.0569 41.2951c1.62 0 2.9333-1.987 2.9333-4.4381s-1.3133-4.4381-2.9333-4.4381c-1.6201 0-2.9334 1.987-2.9334 4.4381s1.3133 4.4381 2.9334 4.4381z" fill="url(#f)"/><path d="m30.0569 33.9236c1.2571 0 2.3619 1.1048 2.9333 2.7238-.0381-2.4-1.3333-4.3238-2.9333-4.3238s-2.8953 1.9238-2.9334 4.3238c.5715-1.619 1.6572-2.7238 2.9334-2.7238z" fill="url(#h)"/><path d="m49.943 41.2951c1.62 0 2.9333-1.987 2.9333-4.4381s-1.3133-4.4381-2.9333-4.4381c-1.6201 0-2.9334 1.987-2.9334 4.4381s1.3133 4.4381 2.9334 4.4381z" fill="url(#i)"/><path d="m49.943 34.0382c-1.2572 0-2.3619 1.1048-2.9334 2.7239.0381-2.4 1.3334-4.3239 2.9334-4.3239s2.8952 1.9239 2.9333 4.3239c-.5714-1.6191-1.6571-2.7239-2.9333-2.7239z" fill="url(#j)"/><path d="m39.8666 60.038c5.0666 0 9.8476 1.0667 12.2857 1.0667s4.5905-1.4095 6.1714-6.4952c2.1334-6.8381-6.6286-7.5429-18.4762-7.5429s-20.6095.7048-18.4762 7.5429c1.581 5.0857 3.7334 6.4952 6.1715 6.4952 2.4761-.0191 7.2571-1.0667 12.3238-1.0667z" fill="url(#k)"/><path d="m39.8669 47.0476c-11.8476 0-20.6095.7048-18.4762 7.5429 1.581 5.0857 3.7334 6.4952 6.1715 6.4952 0 0-5.0667-1.8286-3.3905-5.5238s15.6952-7.0095 15.6952-7.0095 14 3.3143 15.6953 7.0095c1.6952 3.6952-3.3905 5.5238-3.3905 5.5238 2.4381 0 4.5905-1.4095 6.1714-6.4952 2.1334-6.8381-6.6285-7.5429-18.4762-7.5429z" fill="url(#l)"/><path d="m39.8663 58.5143c3.0857 0 6.0571.3809 8.4381.6857 1.5809.2095 2.9524.3809 3.8476.3809.1333 0 .2667.0191.4191.0191 2.7809 0 3.4476-4.5143 2.7047-4.5143 0 0 1.8286-2.5143.3429-4.6667-3.2762-1.8476-11.2191-1.8476-15.7524-1.8476s-12.4762 0-15.7524 1.8476c-1.4857 2.1715.3429 4.6667.3429 4.6667-.7429 0-.0762 4.5143 2.7047 4.5143.1524-.0191.2858-.0191.4191-.0191.9143 0 2.2667-.1714 3.8476-.3809 2.381-.3238 5.3524-.6857 8.4381-.6857z" fill="url(#m)"/><path d="m24.4188 55.5236c10.2476-2.3238 20.8952-2.2857 31.1238.0953-.0191-.2667-.0953-.4572-.2096-.5143l-.0761-.0191s-5.1239-1.8095-15.2762-1.8095c-10.1524 0-15.5429 1.8095-15.5429 1.8095-.1524 0-.2476.1905-.2667.4953z" fill="#99afb3"/><path d="m46.4574 26.3428c-.1333-1.4667 1.0857-2.4953 3.3524-2.7048 1.9238-.1905 6.2667.6857 9.6 4.8952.6095.781-.1714 1.3143-.7429.8191-1.9619-1.6572-6.9714-3.5429-10.6666-2.7048-1.4858.3429-1.5429-.3047-1.5429-.3047z" fill="url(#n)"/></svg>