<svg fill="none" height="80" viewBox="0 0 80 80" width="80" xmlns="http://www.w3.org/2000/svg" xmlns:xlink="http://www.w3.org/1999/xlink"><radialGradient id="a" cx="34.479" cy="28.1245" gradientUnits="userSpaceOnUse" r="36.7641"><stop offset="0" stop-color="#ffdf30"/><stop offset="1" stop-color="#ffb82e"/></radialGradient><radialGradient id="b" cx="34.479" cy="28.1245" gradientUnits="userSpaceOnUse" r="28.924"><stop offset="0" stop-color="#ffe95f"/><stop offset="1" stop-color="#ffbb47" stop-opacity="0"/></radialGradient><linearGradient id="c"><stop offset=".00132565" stop-color="#3c2200"/><stop offset="1" stop-color="#7a4400"/></linearGradient><linearGradient id="d" gradientUnits="userSpaceOnUse" x1="27.6253" x2="26.8819" xlink:href="#c" y1="24.0294" y2="20.9054"/><linearGradient id="e"><stop offset=".00132565" stop-color="#7a4400"/><stop offset="1" stop-color="#643800"/></linearGradient><radialGradient id="f" cx="0" cy="0" gradientTransform="matrix(1.34380756 6.17350709 -3.10761992 .67644583 29.5269 33.9098)" gradientUnits="userSpaceOnUse" r="1" xlink:href="#e"/><linearGradient id="g"><stop offset=".00132565" stop-color="#3c2200"/><stop offset="1" stop-color="#512d00"/></linearGradient><linearGradient id="h" gradientUnits="userSpaceOnUse" x1="30.5253" x2="30.5253" xlink:href="#g" y1="27.0866" y2="33.2601"/><radialGradient id="i" cx="40.475" cy="55.3493" gradientUnits="userSpaceOnUse" r="16.7881" xlink:href="#e"/><radialGradient id="j" cx="0" cy="0" gradientTransform="matrix(13.9137 0 0 4.2061 40.7265 61.255)" gradientUnits="userSpaceOnUse" r="1"><stop offset=".2479" stop-color="#f00"/><stop offset="1" stop-color="#c10000"/></radialGradient><linearGradient id="k" gradientUnits="userSpaceOnUse" x1="61.8657" x2="19.3441" y1="51.8982" y2="51.8982"><stop offset=".00132565" stop-color="#3c2200"/><stop offset=".5" stop-color="#512d00"/><stop offset="1" stop-color="#3c2200"/></linearGradient><radialGradient id="l" cx="40.475" cy="50.666" gradientUnits="userSpaceOnUse" r="36.8167"><stop offset=".00132565" stop-color="#fff"/><stop offset="1" stop-color="#a8bbbd"/></radialGradient><linearGradient id="m" gradientUnits="userSpaceOnUse" x1="53.3191" x2="54.0625" xlink:href="#c" y1="24.0198" y2="20.8958"/><radialGradient id="n" cx="0" cy="0" gradientTransform="matrix(-1.34378601 6.17351178 -3.10762228 -.67643499 51.4255 33.9078)" gradientUnits="userSpaceOnUse" r="1" xlink:href="#e"/><linearGradient id="o" gradientUnits="userSpaceOnUse" x1="50.4247" x2="50.4247" xlink:href="#g" y1="27.0867" y2="33.2601"/><path d="m40.475 70.95c16.8309 0 30.475-13.6441 30.475-30.475s-13.6441-30.475-30.475-30.475-30.475 13.6441-30.475 30.475 13.6441 30.475 30.475 30.475z" fill="url(#a)"/><path d="m40.475 70.95c16.8309 0 30.475-13.6441 30.475-30.475s-13.6441-30.475-30.475-30.475-30.475 13.6441-30.475 30.475 13.6441 30.475 30.475 30.475z" fill="url(#b)" opacity=".5"/><path d="m33.4019 20.5599c-.2834-1.1906-1.7434-1.63-3.9546-1.1056-1.8852.4536-5.7548 2.4664-7.7251 6.7896-.3685.7937.5245.978.9355.411 1.3891-1.8993 5.6131-4.9185 9.3693-5.3862 1.5167-.1843 1.3749-.7088 1.3749-.7088z" fill="url(#d)"/><path d="m30.5246 40.3616c1.824 0 3.3026-2.9636 3.3026-6.6195 0-3.6558-1.4786-6.6194-3.3026-6.6194s-3.3027 2.9636-3.3027 6.6194c0 3.6559 1.4787 6.6195 3.3027 6.6195z" fill="url(#f)"/><path d="m30.5246 29.3623c1.4174 0 2.6506 1.6442 3.2884 4.0538-.0425-3.5861-1.5025-6.4635-3.2884-6.4635-1.8002 0-3.246 2.8774-3.2885 6.4635.6378-2.4096 1.871-4.0538 3.2885-4.0538z" fill="url(#h)"/><path d="m61.0563 45.6345c-.2268-.085-.482-.0992-.7088-.0283-6.4351 1.8426-13.1113 2.764-19.8583 2.764s-13.4374-.9355-19.8584-2.764c-.2409-.0709-.4819-.0567-.7087.0283-.6945.2835-1.8001 1.3324-.3402 5.3438v.0141c2.1545 5.1312 7.8668 14.1461 20.8931 14.1461 12.9979 0 18.7102-9.0291 20.9215-14.1461 1.4457-4.0255.3543-5.0744-.3402-5.3579z" fill="url(#i)"/><path d="m40.4752 63.7069c5.4005 0 9.4543-1.6584 12.4877-3.9263-3.331-1.5025-7.4416-2.4806-12.4877-2.4806s-9.1567.9922-12.4877 2.5089c3.0334 2.2396 7.0873 3.898 12.4877 3.898z" fill="url(#j)"/><path d="m60.6451 45.5494c-.0426 0-.0851 0-.1418.0142-6.4919 1.871-13.2247 2.8207-20.0426 2.8207s-13.5508-.9497-20.0426-2.8207c-.0426-.0142-.0851-.0142-.1418-.0142-.4394.0426-2.5372.482-.7371 5.443v.0142c.8789 2.0695 2.3388 4.7768 4.6209 7.2573-2.1403-2.5372.4961-3.9405 5.1878-3.3735 4.6918.567 11.1128.5811 11.1128.5811s6.4068-.0141 11.1127-.5811c4.6918-.567 7.3282.8363 5.1879 3.3735 2.2821-2.4805 3.742-5.1878 4.6208-7.2573v-.0142c1.8002-4.9752-.2976-5.4146-.737-5.443z" fill="url(#k)"/><path d="m57.0307 52.5233c1.786-.3828 3.1326-1.8711 3.3026-3.6996l.1701-1.7859c-6.4919 1.8285-13.2247 2.764-20.0284 2.764s-13.5366-.9355-20.0285-2.764l.1701 1.7859c.1701 1.8144 1.5167 3.3027 3.3027 3.6996 5.4146 1.1764 10.971 1.7576 16.5557 1.7576s11.1411-.5953 16.5557-1.7576z" fill="url(#l)"/><path d="m47.5479 20.5599c.2835-1.1906 1.7435-1.63 3.9547-1.1056 1.8852.4536 5.7548 2.4664 7.7251 6.7896.3685.7937-.5245.978-.9355.411-1.3891-1.8993-5.6131-4.9185-9.3693-5.3862-1.5167-.1843-1.375-.7088-1.375-.7088z" fill="url(#m)"/><path d="m50.4254 40.3616c1.824 0 3.3027-2.9636 3.3027-6.6194 0-3.6559-1.4787-6.6195-3.3027-6.6195s-3.3026 2.9636-3.3026 6.6195c0 3.6558 1.4786 6.6194 3.3026 6.6194z" fill="url(#n)"/><path d="m50.4254 29.3623c-1.4174 0-2.6506 1.6442-3.2884 4.0538.0425-3.5861 1.5025-6.4635 3.2884-6.4635 1.8002 0 3.246 2.8774 3.2885 6.4635-.6379-2.4096-1.871-4.0538-3.2885-4.0538z" fill="url(#o)"/></svg>