<svg fill="none" height="80" viewBox="0 0 80 80" width="80" xmlns="http://www.w3.org/2000/svg" xmlns:xlink="http://www.w3.org/1999/xlink"><radialGradient id="a" cx="0" cy="0" gradientTransform="matrix(26.71451233 -15.23645293 12.44724088 21.8241064 33.6066 27.3432)" gradientUnits="userSpaceOnUse" r="1"><stop offset="0" stop-color="#ff9114"/><stop offset="1" stop-color="#ff4e0d"/></radialGradient><radialGradient id="b" cx="0" cy="0" gradientTransform="matrix(8.19053285 26.2840086 -14.13710873 4.40535747 17.5768 25.3824)" gradientUnits="userSpaceOnUse" r="1"><stop offset="0" stop-color="#512d00" stop-opacity=".5"/><stop offset=".6715" stop-color="#603600" stop-opacity=".082179"/><stop offset=".8036" stop-color="#643800" stop-opacity="0"/></radialGradient><radialGradient id="c" cx="0" cy="0" gradientTransform="matrix(15.8006 0 0 7.86397 40.5702 64.1801)" gradientUnits="userSpaceOnUse" r="1"><stop offset="0" stop-color="#7a4400" stop-opacity=".5"/><stop offset=".6008" stop-color="#894d00" stop-opacity=".1981"/><stop offset=".995" stop-color="#965500" stop-opacity="0"/></radialGradient><linearGradient id="d"><stop offset=".00132565" stop-color="#7a4400"/><stop offset="1" stop-color="#643800"/></linearGradient><radialGradient id="e" cx="0" cy="0" gradientTransform="matrix(1.19741463 4.13604726 -2.67595454 .77470757 29.6342 39.7862)" gradientUnits="userSpaceOnUse" r="1" xlink:href="#d"/><linearGradient id="f"><stop offset=".00132565" stop-color="#3c2200"/><stop offset="1" stop-color="#512d00"/></linearGradient><linearGradient id="g" gradientUnits="userSpaceOnUse" x1="30.5245" x2="30.5245" xlink:href="#f" y1="35.214" y2="39.3499"/><radialGradient id="h" cx="0" cy="0" gradientTransform="matrix(1.19741463 4.13604726 -2.67595454 .77470757 49.5344 39.7869)" gradientUnits="userSpaceOnUse" r="1" xlink:href="#d"/><linearGradient id="i" gradientUnits="userSpaceOnUse" x1="50.4239" x2="50.4239" xlink:href="#f" y1="35.3229" y2="39.4588"/><linearGradient id="j"><stop offset=".00132565" stop-color="#3c2200"/><stop offset="1" stop-color="#7a4400"/></linearGradient><linearGradient id="k" gradientUnits="userSpaceOnUse" x1="53.3295" x2="52.9008" xlink:href="#j" y1="32.2344" y2="28.0967"/><linearGradient id="l" gradientUnits="userSpaceOnUse" x1="27.6141" x2="28.0428" xlink:href="#j" y1="32.2308" y2="28.0931"/><linearGradient id="m" gradientUnits="userSpaceOnUse" x1="39.2759" x2="-2.09466" y1="30.2626" y2="18.3058"><stop offset="0" stop-color="#d0f1ff"/><stop offset=".668" stop-color="#80d9fd"/><stop offset="1" stop-color="#0098d5"/></linearGradient><radialGradient id="n" cx="0" cy="0" gradientTransform="matrix(-11.55120612 2.1258787 -3.27363455 -17.78766937 19.2153 22.9933)" gradientUnits="userSpaceOnUse" r="1"><stop offset=".0599486" stop-color="#80d9fd"/><stop offset=".566" stop-color="#80d9fd"/><stop offset="1" stop-color="#0098d5"/></radialGradient><radialGradient id="o" cx="0" cy="0" gradientTransform="matrix(-9.4952 0 0 -16.3821 16.8656 24.303)" gradientUnits="userSpaceOnUse" r="1"><stop offset=".3432" stop-color="#80d9fd"/><stop offset="1" stop-color="#0098d5"/></radialGradient><radialGradient id="p" cx="0" cy="0" gradientTransform="matrix(-2.50656207 -10.35772183 4.56349364 -1.10436255 21.2476 21.9757)" gradientUnits="userSpaceOnUse" r="1"><stop offset="0" stop-color="#fff" stop-opacity=".25"/><stop offset="1" stop-color="#fff" stop-opacity="0"/></radialGradient><radialGradient id="q" cx="0" cy="0" gradientTransform="matrix(-5.4233394 15.7549875 -11.97327234 -4.12155958 19.2033 22.2951)" gradientUnits="userSpaceOnUse" r="1"><stop offset=".5858" stop-color="#0098d5" stop-opacity="0"/><stop offset=".7186" stop-color="#1477e5" stop-opacity=".1604"/><stop offset=".9039" stop-color="#2d4ff8" stop-opacity=".3839"/><stop offset="1" stop-color="#3640ff" stop-opacity=".5"/></radialGradient><radialGradient id="r" cx="0" cy="0" gradientTransform="matrix(-3.1510609 -13.02094718 5.73691262 -1.38832919 21.2476 21.9757)" gradientUnits="userSpaceOnUse" r="1"><stop offset="0" stop-color="#fff" stop-opacity=".45"/><stop offset="1" stop-color="#fff" stop-opacity="0"/></radialGradient><radialGradient id="s" cx="0" cy="0" gradientTransform="matrix(3.69619679 6.00709541 -6.49497667 3.99639264 39.802 57.4355)" gradientUnits="userSpaceOnUse" r="1" xlink:href="#d"/><linearGradient id="t" gradientUnits="userSpaceOnUse" x1="40.475" x2="40.475" xlink:href="#f" y1="52.1281" y2="60.8782"/><linearGradient id="u" gradientUnits="userSpaceOnUse" x1="40.4746" x2="40.4746" y1="65.3599" y2="50.0965"><stop offset="0" stop-color="#ff6687"/><stop offset="1" stop-color="#d83e15"/></linearGradient><radialGradient id="v" cx="0" cy="0" gradientTransform="matrix(9.34066887 -10.74343034 12.09894302 10.51919329 40.2625 61.5574)" gradientUnits="userSpaceOnUse" r="1"><stop offset="0" stop-color="#fff" stop-opacity=".33"/><stop offset="1" stop-color="#fff" stop-opacity="0"/></radialGradient><linearGradient id="w" gradientUnits="userSpaceOnUse" x1="40.4742" x2="40.4742" y1="57.4449" y2="75.3971"><stop offset="0" stop-color="#d83e15" stop-opacity="0"/><stop offset="1" stop-color="#d83e15"/></linearGradient><linearGradient id="x" gradientUnits="userSpaceOnUse" x1="40.4746" x2="40.4746" y1="61.1816" y2="54.3276"><stop offset="0" stop-color="#d83e15" stop-opacity="0"/><stop offset="1" stop-color="#bc2719"/></linearGradient><clipPath id="y"><path d="m10 9h60.95v62.2682h-60.95z"/></clipPath><g clip-path="url(#y)"><path d="m40.475 69.95c16.8309 0 30.475-13.6441 30.475-30.475s-13.6441-30.475-30.475-30.475-30.475 13.6441-30.475 30.475 13.6441 30.475 30.475 30.475z" fill="url(#a)"/><path d="m40.475 69.95c16.8309 0 30.475-13.6441 30.475-30.475s-13.6441-30.475-30.475-30.475-30.475 13.6441-30.475 30.475 13.6441 30.475 30.475 30.475z" fill="url(#b)"/><path d="m40.475 69.95c16.8309 0 30.475-13.6441 30.475-30.475s-13.6441-30.475-30.475-30.475-30.475 13.6441-30.475 30.475 13.6441 30.475 30.475 30.475z" fill="url(#c)"/><path d="m30.5246 44.1101c1.6204 0 2.9341-1.9864 2.9341-4.4366 0-2.4503-1.3137-4.4366-2.9341-4.4366-1.6205 0-2.9341 1.9863-2.9341 4.4366 0 2.4502 1.3136 4.4366 2.9341 4.4366z" fill="url(#e)"/><path d="m30.5246 36.7393c1.2615 0 2.3529 1.0914 2.9341 2.7215-.0426-2.3955-1.3324-4.3232-2.9341-4.3232-1.6018 0-2.8916 1.9277-2.9341 4.3232.5811-1.6301 1.6725-2.7215 2.9341-2.7215z" fill="url(#g)"/><path d="m50.4254 44.1101c1.6205 0 2.9341-1.9864 2.9341-4.4366 0-2.4503-1.3136-4.4366-2.9341-4.4366-1.6204 0-2.9341 1.9863-2.9341 4.4366 0 2.4502 1.3137 4.4366 2.9341 4.4366z" fill="url(#h)"/><path d="m50.4254 36.8527c-1.2615 0-2.3529 1.0915-2.9341 2.7215.0426-2.3954 1.3324-4.3232 2.9341-4.3232s2.8916 1.9278 2.9341 4.3232c-.5811-1.63-1.6725-2.7215-2.9341-2.7215z" fill="url(#i)"/><path d="m59.3129 28.1355c.0851 1.219-1.1764 2.0694-3.4443 2.2395-1.9278.1418-6.2226-.6237-9.4118-4.1673-.5812-.652.2126-1.0914.7654-.6803 1.8993 1.3891 6.832 3.005 10.5457 2.3388 1.5167-.2835 1.545.2693 1.545.2693z" fill="url(#k)"/><path d="m21.6373 28.1355c-.085 1.219 1.1765 2.0694 3.4444 2.2395 1.9277.1418 6.2226-.6237 9.4118-4.1673.5812-.652-.2126-1.0914-.7654-.6803-1.8993 1.3891-6.832 3.005-10.5457 2.3388-1.5167-.2835-1.5451.2693-1.5451.2693z" fill="url(#l)"/><path d="m11.0206 28.2347c0 4.0539 3.2885 7.3282 7.3282 7.3282s7.3282-3.2885 7.3282-7.3282c0-7.8526-7.3282-15.6627-7.3282-15.6627s-7.3282 7.8101-7.3282 15.6627z" fill="url(#m)"/><path d="m18.2638 12.657c-.6521 4.0113-4.7201 7.7817-3.8271 15.4359.6662 5.6556 9.1425 5.9958 11.2261.5812-.2268 3.8412-3.416 6.8746-7.314 6.8746-4.0539 0-7.3282-3.2885-7.3282-7.3282 0-7.3424 6.421-14.6564 7.2432-15.5635z" fill="url(#n)" opacity=".5"/><path d="m18.3488 35.5629c-4.0539 0-7.3282-3.2885-7.3282-7.3282 0-7.073 5.9533-14.1177 7.1298-15.4359-1.2757 4.0113-5.4005 9.596-5.4005 15.039 0 4.309 6.336 9.5394 12.516 2.8491-1.0205 2.8349-3.7279 4.876-6.9171 4.876z" fill="url(#o)"/><path d="m11.0206 28.2347c0 4.0539 3.2885 7.3282 7.3282 7.3282s7.3282-3.2885 7.3282-7.3282c0-7.8526-7.3282-15.6627-7.3282-15.6627s-7.3282 7.8101-7.3282 15.6627z" fill="url(#p)"/><path d="m11.0206 28.2347c0 4.0539 3.2885 7.3282 7.3282 7.3282s7.3282-3.2885 7.3282-7.3282c0-7.8526-7.3282-15.6627-7.3282-15.6627s-7.3282 7.8101-7.3282 15.6627z" fill="url(#q)"/><path d="m11.0206 28.2347c0 4.0539 3.2885 7.3282 7.3282 7.3282s7.3282-3.2885 7.3282-7.3282c0-7.8526-7.3282-15.6627-7.3282-15.6627s-7.3282 7.8101-7.3282 15.6627z" fill="url(#r)"/><path d="m40.475 62.2817c6.0513 0 10.9568-2.31 10.9568-5.1595s-4.9055-5.1595-10.9568-5.1595-10.9568 2.31-10.9568 5.1595 4.9055 5.1595 10.9568 5.1595z" fill="url(#s)"/><path d="m40.475 54.0322c5.3012 0 9.7237 1.7718 10.7442 4.1247.1418-.326.2126-.6804.2126-1.0205 0-2.8491-4.9043-5.1595-10.9568-5.1595s-10.9568 2.3104-10.9568 5.1595c0 .3543.0709.6945.2126 1.0205 1.0206-2.3529 5.443-4.1247 10.7442-4.1247z" fill="url(#t)"/><path d="m49.164 56.0165c0-1.8143-6.0808-3.0758-8.6889-3.0758s-8.689 1.2615-8.689 3.0758v6.0525c0 4.961 3.898 9.1992 8.689 9.1992 4.8051 0 8.6889-4.2382 8.6889-9.1992v-.0142z" fill="url(#u)"/><path d="m49.164 56.0165c0-1.8143-6.0808-3.0758-8.6889-3.0758s-8.689 1.2615-8.689 3.0758v6.0525c0 4.961 3.898 9.1992 8.689 9.1992 4.8051 0 8.6889-4.2382 8.6889-9.1992v-.0142z" fill="url(#v)"/><path d="m39.5679 56.1157h1.8001c0 11.538-.3969 11.6939-.9071 11.6939-.482 0-.893-.2126-.893-11.6939z" fill="url(#w)"/><path d="m40.4751 52.9407c-2.6081 0-8.689 1.2615-8.689 3.0758v3.4161s.0993-4.9327 8.689-4.9327c8.5755 0 8.6889 4.9327 8.6889 4.9327s0-1.8144 0-3.4161c0-1.8143-6.0808-3.0758-8.6889-3.0758z" fill="url(#x)"/></g></svg>